<?xml version="1.0" encoding="UTF-8"?>
<svg width="40px" height="40px" viewBox="0 0 40 40" version="1.1" xmlns="http://www.w3.org/2000/svg" xmlns:xlink="http://www.w3.org/1999/xlink">
    <title>Filter/FilterIcon_bedSpace occupied</title>
    <g id="Filter/FilterIcon_bedSpace-occupied" stroke="none" stroke-width="1" fill="none" fill-rule="evenodd">
        <g id="Icon/Bed">
            <g id="UI_DEV_0097_TubeVentilation" transform="translate(-7.878495, 2.433428)">
                <polygon id="Bounding-Box" points="0 29.7370612 55.7569898 29.7370612 55.7569898 0 0 0"></polygon>
                <path d="M22.2555187,24.6561126 C23.3337194,24.6561126 24.2070133,25.5893607 24.2070133,26.7377069 C24.2070133,27.8877878 23.3337194,28.8193012 22.2555187,28.8193012 C21.1773179,28.8193012 20.304024,27.8877878 20.304024,26.7377069 C20.304024,25.5893607 21.1773179,24.6561126 22.2555187,24.6561126 Z M33.4764502,24.6561126 C34.554651,24.6561126 35.4279449,25.5893607 35.4279449,26.7377069 C35.4279449,27.8877878 34.554651,28.8193012 33.4764502,28.8193012 C32.3998757,28.8193012 31.5249556,27.8877878 31.5249556,26.7377069 C31.5249556,25.5893607 32.3998757,24.6561126 33.4764502,24.6561126 Z M14.6129778,11.1264436 C15.263476,11.1264436 15.7513496,11.6468422 15.7513496,12.340707 L15.7513496,12.340707 L15.7513496,18.5854898 L39.8197836,18.5854898 L39.8197836,15.2896322 C39.8197836,14.5957674 40.3076572,14.0753689 40.9581555,14.0753689 C41.6070274,14.0753689 42.2591519,14.5957674 42.2591519,15.2896322 L42.2591519,15.2896322 L42.2591519,18.758956 C42.2591519,20.1466855 41.2817783,21.1874827 39.9807819,21.1874827 L39.9807819,21.1874827 L35.2662961,21.1874827 C35.2662961,21.8813474 34.7767962,22.401746 34.1279242,22.401746 L34.1279242,22.401746 L21.6058336,22.401746 C21.1179599,22.401746 20.4658354,21.8813474 20.4658354,21.1874827 L20.4658354,21.1874827 L15.7513496,21.1874827 C14.4503532,21.1874827 13.4746059,20.1466855 13.4746059,18.758956 L13.4746059,18.758956 L13.4746059,12.340707 C13.4746059,11.6468422 13.9608533,11.1264436 14.6129778,11.1264436 Z M24.2070133,13.2083848 C24.3696379,11.9941215 25.6706343,11.1267905 26.8090062,11.3002567 L26.8090062,11.3002567 L26.9716307,11.3002567 L36.2412303,13.5553172 C36.8917285,13.5553172 37.3796021,14.0757158 37.3796021,14.7695806 C37.3796021,15.6369115 36.7291039,16.1573101 36.0786057,16.1573101 L36.0786057,16.1573101 L25.5080097,16.1573101 C24.694887,16.1573101 24.2070133,15.4634453 24.2070133,14.7695806 L24.2070133,14.7695806 Z M20.4664859,6.44302994 C21.9935305,6.44302994 23.2311034,7.76310765 23.2311034,9.39195518 C23.2311034,11.0208027 21.9935305,12.3408804 20.4664859,12.3408804 C18.9410676,12.3408804 17.7018685,11.0208027 17.7018685,9.39195518 C17.7018685,7.76310765 18.9410676,6.44302994 20.4664859,6.44302994 Z" id="Icon-Color" fill="#25588C"></path>
            </g>
            <rect id="Rectangle" fill-rule="nonzero" x="0" y="0" width="40" height="40"></rect>
        </g>
    </g>
</svg>