<?xml version="1.0" encoding="UTF-8"?>
<svg width="30px" height="30px" viewBox="0 0 30 30" version="1.1" xmlns="http://www.w3.org/2000/svg" xmlns:xlink="http://www.w3.org/1999/xlink">
    <title>icon/bedSpace empty</title>
    <defs>
        <path d="M9.62641243,20.4704498 C10.5628531,20.4704498 11.3213277,21.2616573 11.3213277,22.2352249 C11.3213277,23.2102631 10.5628531,24 9.62641243,24 C8.68997175,24 7.93149718,23.2102631 7.93149718,22.2352249 C7.93149718,21.2616573 8.68997175,20.4704498 9.62641243,20.4704498 Z M19.3720339,20.4704498 C20.3084746,20.4704498 21.0669492,21.2616573 21.0669492,22.2352249 C21.0669492,23.2102631 20.3084746,24 19.3720339,24 C18.4370056,24 17.6771186,23.2102631 17.6771186,22.2352249 C17.6771186,21.2616573 18.4370056,20.4704498 19.3720339,20.4704498 Z M2.98870056,9 C3.55367232,9 3.97740113,9.44119377 3.97740113,10.0294521 L3.97740113,10.0294521 L3.97740113,15.3237774 L24.8813559,15.3237774 L24.8813559,12.5295502 C24.8813559,11.9412918 25.3050847,11.500098 25.8700565,11.500098 C26.4336158,11.500098 27,11.9412918 27,12.5295502 L27,12.5295502 L27,15.470842 C27,16.6473587 26.1511299,17.5297463 25.0211864,17.5297463 L25.0211864,17.5297463 L20.9265537,17.5297463 C20.9265537,18.1180046 20.5014124,18.5591984 19.9378531,18.5591984 L19.9378531,18.5591984 L9.06214689,18.5591984 C8.63841808,18.5591984 8.0720339,18.1180046 8.0720339,17.5297463 L8.0720339,17.5297463 L3.97740113,17.5297463 C2.84745763,17.5297463 2,16.6473587 2,15.470842 L2,15.470842 L2,10.0294521 C2,9.44119377 2.42231638,9 2.98870056,9 Z" id="path-1"></path>
    </defs>
    <g id="icon/bedSpace-empty" stroke="none" stroke-width="1" fill="none" fill-rule="evenodd">
        <mask id="mask-2" fill="white">
            <use xlink:href="#path-1"></use>
        </mask>
        <use id="Mask" fill="#1EA681" xlink:href="#path-1"></use>
    </g>
</svg>